<svg width="24" height="24" viewBox="0 0 24 24" fill="none" xmlns="http://www.w3.org/2000/svg">
<g clip-path="url(#clip0_292_233)">
<path d="M11.9808 5.8248C8.58239 5.8248 5.81759 8.5896 5.81759 11.988C5.81759 15.3864 8.58239 18.1488 11.9808 18.1488C15.3792 18.1488 18.1416 15.384 18.1416 11.988C18.144 8.5896 15.3792 5.8248 11.9808 5.8248ZM11.9808 15.7992C9.87839 15.7992 8.16959 14.0904 8.16959 11.988C8.16959 9.8856 9.87839 8.1768 11.9808 8.1768C14.0832 8.1768 15.792 9.8856 15.792 11.988C15.792 14.0904 14.0832 15.7992 11.9808 15.7992ZM17.0184 0.119995H6.94319C3.17759 0.119995 0.112793 3.1848 0.112793 6.9504V17.0256C0.112793 20.7912 3.17759 23.856 6.94319 23.856H17.0184C20.784 23.856 23.8488 20.7912 23.8488 17.0256V6.9504C23.8488 3.1848 20.7864 0.119995 17.0184 0.119995ZM21.4992 17.0256C21.4992 19.4952 19.488 21.504 17.0184 21.504H6.94319C4.47359 21.504 2.46479 19.4952 2.46479 17.0256V6.9504C2.46479 4.4808 4.47359 2.472 6.94319 2.472H17.0184C19.488 2.472 21.4968 4.4808 21.4968 6.9504V17.0256H21.4992ZM18.228 4.044C17.34 4.044 16.6152 4.7664 16.6152 5.6568C16.6152 6.5448 17.3376 7.2696 18.228 7.2696C19.116 7.2696 19.8408 6.5472 19.8408 5.6568C19.8408 4.7664 19.116 4.044 18.228 4.044Z" fill="#1E1E1E"/>
</g>
<defs>
<clipPath id="clip0_292_233">
<rect width="24" height="24" fill="white"/>
</clipPath>
</defs>
</svg>
