<svg width="24" height="24" viewBox="0 0 24 24" fill="none" xmlns="http://www.w3.org/2000/svg">
<g clip-path="url(#clip0_123_102)">
<path d="M11.9808 5.82492C8.58239 5.82492 5.81759 8.58972 5.81759 11.9881C5.81759 15.3865 8.58239 18.1489 11.9808 18.1489C15.3792 18.1489 18.1416 15.3841 18.1416 11.9881C18.144 8.58972 15.3792 5.82492 11.9808 5.82492ZM11.9808 15.7993C9.87839 15.7993 8.16959 14.0905 8.16959 11.9881C8.16959 9.88572 9.87839 8.17692 11.9808 8.17692C14.0832 8.17692 15.792 9.88572 15.792 11.9881C15.792 14.0905 14.0832 15.7993 11.9808 15.7993ZM17.0184 0.120117H6.94319C3.17759 0.120117 0.112793 3.18492 0.112793 6.95052V17.0257C0.112793 20.7913 3.17759 23.8561 6.94319 23.8561H17.0184C20.784 23.8561 23.8488 20.7913 23.8488 17.0257V6.95052C23.8488 3.18492 20.7864 0.120117 17.0184 0.120117ZM21.4992 17.0257C21.4992 19.4953 19.488 21.5041 17.0184 21.5041H6.94319C4.47359 21.5041 2.46479 19.4953 2.46479 17.0257V6.95052C2.46479 4.48092 4.47359 2.47212 6.94319 2.47212H17.0184C19.488 2.47212 21.4968 4.48092 21.4968 6.95052V17.0257H21.4992ZM18.228 4.04412C17.34 4.04412 16.6152 4.76652 16.6152 5.65692C16.6152 6.54492 17.3376 7.26972 18.228 7.26972C19.116 7.26972 19.8408 6.54732 19.8408 5.65692C19.8408 4.76652 19.116 4.04412 18.228 4.04412Z" fill="#F1F1F1"/>
</g>
<defs>
<clipPath id="clip0_123_102">
<rect width="24" height="24" fill="white"/>
</clipPath>
</defs>
</svg>
